<svg xmlns="http://www.w3.org/2000/svg" xmlns:xlink="http://www.w3.org/1999/xlink" width="86.359" height="72.429" viewBox="0 0 86.359 72.429"><defs><style>.a{fill:url(#a);}.b{fill:url(#b);}</style><radialGradient id="a" cx="0.5" cy="0.5" r="0.55" gradientTransform="translate(0.081) scale(0.839 1)" gradientUnits="objectBoundingBox"><stop offset="0" stop-color="#afeeff"/><stop offset="0.193" stop-color="#bbf1ff"/><stop offset="0.703" stop-color="#d7f8ff"/><stop offset="1" stop-color="#e1faff"/></radialGradient><linearGradient id="b" x1="0.5" x2="0.5" y2="1" gradientUnits="objectBoundingBox"><stop offset="0" stop-color="#42d778"/><stop offset="0.428" stop-color="#3dca76"/><stop offset="1" stop-color="#34b171"/></linearGradient></defs><g transform="translate(-2 -6)"><path class="a" d="M73.037,45h7.3a7.911,7.911,0,0,0,7.983-6.875A7.681,7.681,0,0,0,80.7,29.679H53.773a4.337,4.337,0,0,1-4.408-3.954,4.178,4.178,0,0,1,4.172-4.4h7.3a7.911,7.911,0,0,0,7.983-6.875A7.681,7.681,0,0,0,61.2,6H13.84a7.66,7.66,0,0,0-7.661,7.661h0a7.66,7.66,0,0,0,7.661,7.661h4.875A2.785,2.785,0,0,1,21.5,24.107h0a2.785,2.785,0,0,1-2.786,2.786H8.563a6.472,6.472,0,0,0-6.531,5.624,6.285,6.285,0,0,0,6.236,6.911h8.817a4.337,4.337,0,0,1,4.408,3.954,4.178,4.178,0,0,1-4.172,4.4h-4.58a6.472,6.472,0,0,0-6.531,5.624,6.286,6.286,0,0,0,6.236,6.911h6.119a2.891,2.891,0,0,1,2.9,2.318,2.789,2.789,0,0,1-2.748,3.254H12.742a6.472,6.472,0,0,0-6.531,5.624,6.285,6.285,0,0,0,6.236,6.911H43.09c.12,0,.231-.029.348-.035.117.01.228.035.348.035H68a4.984,4.984,0,0,0,4.927-3.84,4.89,4.89,0,0,0-4.768-5.91H60.65a2.891,2.891,0,0,1-2.9-2.318A2.789,2.789,0,0,1,60.5,63.108H77.616a6.472,6.472,0,0,0,6.531-5.626,6.285,6.285,0,0,0-6.236-6.91H73.186a2.891,2.891,0,0,1-2.9-2.318A2.789,2.789,0,0,1,73.037,45Z" transform="translate(0)"/><path class="b" d="M70.022,15.443,33.136,52.329,14.407,33.55a4.924,4.924,0,0,0-6.964,0h0a4.924,4.924,0,0,0,0,6.964L29.478,62.6a5.174,5.174,0,0,0,7.318,0L76.988,22.407a4.924,4.924,0,0,0,0-6.964h0A4.926,4.926,0,0,0,70.022,15.443Z" transform="translate(1.572 3.143)"/></g></svg>